<svg xmlns="http://www.w3.org/2000/svg" width="268" height="32"><g enable-background="new" fill="#fff"><path d="M.333 30.992v-30.357h22.509v5.135h-16.379v6.73h15.24v5.115h-15.24v8.263h16.959v5.114h-23.089z"/><path d="M47.555 30.992h-5.405v-3.23c-.897 1.257-1.957 2.191-3.178 2.806-1.222.614-2.454.922-3.696.922-2.526 0-4.69-1.018-6.492-3.055-1.802-2.036-2.703-4.876-2.703-8.521 0-3.728.876-6.561 2.63-8.5 1.753-1.939 3.969-2.91 6.647-2.91 2.457 0 4.583 1.022 6.378 3.065v-10.934h5.819v30.357zm-15.53-11.472c0 2.347.324 4.045.973 5.094.938 1.519 2.25 2.278 3.934 2.278 1.339 0 2.478-.57 3.417-1.709.938-1.139 1.408-2.84 1.408-5.104 0-2.525-.456-4.345-1.367-5.456-.911-1.111-2.078-1.667-3.5-1.667-1.381 0-2.537.549-3.469 1.646-.93 1.097-1.396 2.738-1.396 4.918z"/><path d="M66.943 30.992v-3.292c-.801 1.173-1.854 2.098-3.158 2.774-1.304.676-2.682 1.015-4.131 1.015-1.478 0-2.803-.324-3.976-.974-1.173-.648-2.022-1.56-2.547-2.733-.525-1.173-.787-2.795-.787-4.866v-13.915h5.818v10.105c0 3.092.107 4.987.321 5.684.214.697.604 1.25 1.17 1.657.566.407 1.284.61 2.153.61.994 0 1.884-.272 2.671-.817.787-.546 1.325-1.222 1.615-2.029s.435-2.785.435-5.933v-9.277h5.819v21.991h-5.403z"/><path d="M97.817 30.992h-5.819v-11.224c0-2.374-.125-3.91-.373-4.607-.248-.697-.652-1.239-1.211-1.625s-1.232-.58-2.019-.58c-1.008 0-1.912.276-2.713.829s-1.35 1.284-1.646 2.195c-.297.911-.445 2.596-.445 5.053v9.96h-5.819v-21.992h5.405v3.23c1.918-2.485 4.334-3.728 7.248-3.728 1.284 0 2.457.231 3.52.694 1.063.463 1.867 1.053 2.413 1.771.545.718.925 1.532 1.139 2.443s.321 2.216.321 3.914v13.667z"/><path d="M115.393 23.993l5.798.974c-.746 2.126-1.923 3.744-3.531 4.855-1.608 1.111-3.621 1.667-6.036 1.667-3.824 0-6.654-1.249-8.49-3.748-1.449-2.002-2.174-4.528-2.174-7.579 0-3.645.952-6.499 2.857-8.562 1.905-2.063 4.314-3.096 7.227-3.096 3.272 0 5.853 1.081 7.745 3.241 1.891 2.161 2.795 5.47 2.713 9.929h-14.578c.042 1.726.511 3.068 1.408 4.027.897.96 2.016 1.439 3.354 1.439.911 0 1.677-.248 2.298-.745.622-.497 1.092-1.298 1.409-2.402zm.331-5.881c-.042-1.684-.477-2.964-1.305-3.841-.828-.876-1.836-1.315-3.023-1.315-1.27 0-2.319.463-3.147 1.388-.828.925-1.235 2.181-1.222 3.769h8.697z"/><path d="M135.844 9.001v4.639h-3.975v8.862c0 1.795.038 2.841.114 3.138.076.297.249.542.518.734.269.194.597.29.983.29.539 0 1.318-.187 2.34-.559l.497 4.514c-1.353.58-2.885.87-4.597.87-1.049 0-1.995-.176-2.837-.528-.842-.352-1.46-.808-1.854-1.366-.394-.56-.666-1.315-.818-2.268-.124-.677-.187-2.043-.187-4.101v-9.587h-2.671v-4.638h2.671v-4.369l5.84-3.396v7.765h3.976z"/></g><g enable-background="new" fill="#FAE3C1"><path d="M162.412 25.588v5.404h-20.397c.221-2.043.884-3.979 1.988-5.809s3.285-4.255 6.544-7.278c2.622-2.443 4.23-4.1 4.824-4.97.801-1.201 1.201-2.388 1.201-3.562 0-1.298-.349-2.295-1.046-2.992s-1.66-1.046-2.889-1.046c-1.215 0-2.182.366-2.898 1.098-.719.731-1.133 1.946-1.243 3.644l-5.798-.58c.345-3.203 1.429-5.501 3.251-6.896 1.822-1.394 4.101-2.091 6.834-2.091 2.995 0 5.349.808 7.061 2.423 1.712 1.615 2.568 3.624 2.568 6.025 0 1.367-.246 2.668-.735 3.903-.49 1.236-1.267 2.53-2.33 3.883-.704.898-1.974 2.188-3.81 3.873s-3 2.803-3.489 3.354c-.49.552-.888 1.091-1.19 1.615h11.554z"/><path d="M177.756 30.992v-6.108h-12.424v-5.094l13.17-19.279h4.887v19.257h3.769v5.115h-3.769v6.108h-5.633zm0-11.224v-10.374l-6.979 10.374h6.979z"/></g><path fill="#F98835" d="M191.175 30.992v-5.818h5.818v5.818h-5.818z" enable-background="new"/><g enable-background="new" fill="#fff"><path d="M222.068 30.992h-5.404v-3.23c-.897 1.257-1.957 2.191-3.179 2.806s-2.454.922-3.696.922c-2.526 0-4.69-1.018-6.492-3.055-1.801-2.036-2.702-4.876-2.702-8.521 0-3.728.877-6.561 2.63-8.5s3.969-2.91 6.647-2.91c2.457 0 4.583 1.022 6.378 3.065v-10.934h5.818v30.357zm-15.531-11.472c0 2.347.324 4.045.973 5.094.939 1.519 2.25 2.278 3.935 2.278 1.339 0 2.478-.57 3.417-1.709.938-1.139 1.408-2.84 1.408-5.104 0-2.525-.456-4.345-1.367-5.456-.911-1.111-2.077-1.667-3.499-1.667-1.381 0-2.537.549-3.469 1.646-.932 1.097-1.398 2.738-1.398 4.918z"/><path d="M240.539 23.993l5.798.974c-.746 2.126-1.923 3.744-3.531 4.855-1.607 1.111-3.62 1.667-6.036 1.667-3.823 0-6.653-1.249-8.489-3.748-1.45-2.002-2.175-4.528-2.175-7.579 0-3.645.953-6.499 2.857-8.562 1.905-2.063 4.314-3.096 7.228-3.096 3.271 0 5.853 1.081 7.744 3.241 1.892 2.161 2.796 5.47 2.713 9.929h-14.578c.042 1.726.511 3.068 1.408 4.027.897.96 2.016 1.439 3.354 1.439.911 0 1.678-.248 2.299-.745s1.09-1.298 1.408-2.402zm.331-5.881c-.042-1.684-.477-2.964-1.305-3.841-.828-.876-1.836-1.315-3.023-1.315-1.271 0-2.319.463-3.147 1.388s-1.235 2.181-1.222 3.769h8.697z"/></g></svg>